# xmcd CD database file generated by OrangeCD 6.2
#
# Track frame offsets:
#	150
#	12613
#	24940
#	38110
#	50448
#	61794
#	73583
#	84933
#	96486
#	110017
#	120700
#	136143
#
# Disc length: 1954 seconds
#
# Revision: 0
# Processed by: cddbd v1.5.2PL0 Copyright (c) Steve Scherf et al.
# Submitted via: OrangeCD 6.2
#
DISCID=9c07a00c
DTITLE=Los Tremendos Gavilanes - Rancheras
DYEAR=1900
DGENRE=
TTITLE0=Botoncito de carino
TTITLE1=La carta que te mandé
TTITLE2=Me cai de la nube
TTITLE3=Qué orgullo tienes
TTITLE4=El dano de tus besos
TTITLE5=Quisiera amarte menos
TTITLE6=La sabanita
TTITLE7=No nos quiere corazon
TTITLE8=Yo hago lo qu quiero
TTITLE9=Flor de las flores
TTITLE10=Soldado zazo
TTITLE11=Ven a decirme
EXTD=
EXTT0=
EXTT1=
EXTT2=
EXTT3=
EXTT4=
EXTT5=
EXTT6=
EXTT7=
EXTT8=
EXTT9=
EXTT10=
EXTT11=
PLAYORDER=
